# Blender v2.79 (sub 0) OBJ File: 'finsh1.blend'
# www.blender.org
mtllib finsh1.mtl
o Cylinder_Cylinder.001_White
v 0.005712 0.000699 -0.030486
v 0.005712 0.628064 -0.030486
v 0.027269 0.628064 -0.021557
v 0.027269 0.000699 -0.021557
v 0.036198 0.628064 0.000000
v 0.036198 0.000699 -0.000000
v 0.027269 0.628064 0.021557
v 0.027269 0.000699 0.021557
v 0.005712 0.628064 0.030486
v 0.005712 0.000699 0.030486
v -0.015846 0.628064 0.021557
v -0.015846 0.000699 0.021557
v -0.024775 0.628064 0.000000
v -0.024775 0.000699 -0.000000
v -0.015846 0.628064 -0.021557
v -0.015846 0.000699 -0.021557
vt 0 0
vt 0 0
vt 0 0
vt 0 0
vt 0 0
vt 0 0
vt 0 0
vt 0 0
vt 0 0
vt 0 0
vt 0 0
vt 0 0
vt 0 0
vt 0 0
vt 0 0
vt 0 0
vt 0 0
vt 0 0
vt 0 0
vt 0 0
vt 0 0
vt 0 0
vt 0 0
vt 0 0
vt 0 0
vt 0 0
vt 0 0
vt 0 0
vt 0 0
vt 0 0
vt 0 0
vt 0 0
vt 0 0
vt 0 0
vn -0.0000 -0.6303 -0.7764
vn -0.0000 0.6303 -0.7764
vn 0.5490 0.6303 -0.5490
vn 0.5490 -0.6303 -0.5490
vn 0.7764 0.6303 0.0000
vn 0.7764 -0.6303 -0.0000
vn 0.5490 0.6303 0.5490
vn 0.5490 -0.6303 0.5490
vn -0.0000 0.6303 0.7764
vn -0.0000 -0.6303 0.7764
vn -0.5490 0.6303 0.5490
vn -0.5490 -0.6303 0.5490
vn -0.7764 0.6303 0.0000
vn -0.7764 -0.6303 -0.0000
vn -0.5490 0.6303 -0.5490
vn -0.5490 -0.6303 -0.5490
usemtl White
s 1
f 1/1/1 2/2/2 3/3/3 4/4/4
f 4/4/4 3/3/3 5/5/5 6/6/6
f 6/6/6 5/5/5 7/7/7 8/8/8
f 8/8/8 7/7/7 9/9/9 10/10/10
f 10/10/10 9/9/9 11/11/11 12/12/12
f 12/12/12 11/11/11 13/13/13 14/14/14
f 3/15/3 2/16/2 15/17/15 13/18/13 11/19/11 9/20/9 7/21/7 5/22/5
f 14/14/14 13/13/13 15/23/15 16/24/16
f 16/24/16 15/23/15 2/25/2 1/26/1
f 1/27/1 4/28/4 6/29/6 8/30/8 10/31/10 12/32/12 14/33/14 16/34/16
o Cube_Cube_Texture
v 0.092251 0.353858 0.015110
v 0.092251 0.418360 0.015110
v 0.027749 0.429276 0.015110
v 0.027749 0.364774 0.015110
v 0.027749 0.429276 -0.015110
v 0.027749 0.364774 -0.015110
v 0.092251 0.353858 -0.015110
v 0.092251 0.418360 -0.015110
v 0.156752 0.355733 0.015110
v 0.156752 0.420235 0.015110
v 0.156752 0.355733 -0.015110
v 0.156752 0.420235 -0.015110
v 0.221254 0.367164 0.015110
v 0.221254 0.431666 0.015110
v 0.221254 0.367164 -0.015110
v 0.221254 0.431666 -0.015110
v 0.285756 0.367269 0.015110
v 0.285756 0.431770 0.015110
v 0.285756 0.367269 -0.015110
v 0.285756 0.431770 -0.015110
v 0.350257 0.355773 0.015110
v 0.350257 0.420275 0.015110
v 0.350257 0.355773 -0.015110
v 0.350257 0.420275 -0.015110
v 0.414759 0.347749 0.015110
v 0.414759 0.412251 0.015110
v 0.414759 0.347749 -0.015110
v 0.414759 0.412251 -0.015110
v 0.479261 0.347749 0.015110
v 0.479261 0.412251 0.015110
v 0.479261 0.347749 -0.015110
v 0.479261 0.412251 -0.015110
v 0.092251 0.482861 0.015110
v 0.027749 0.493778 0.015110
v 0.027749 0.493778 -0.015110
v 0.092251 0.482861 -0.015110
v 0.156752 0.484736 0.015110
v 0.156752 0.484736 -0.015110
v 0.221254 0.496168 0.015110
v 0.221254 0.496168 -0.015110
v 0.285756 0.496272 0.015110
v 0.285756 0.496272 -0.015110
v 0.350257 0.484777 0.015110
v 0.350257 0.484777 -0.015110
v 0.414759 0.476753 0.015110
v 0.414759 0.476753 -0.015110
v 0.479261 0.476753 0.015110
v 0.479261 0.476753 -0.015110
v 0.092251 0.547363 0.015110
v 0.027749 0.558279 0.015110
v 0.027749 0.558279 -0.015110
v 0.092251 0.547363 -0.015110
v 0.156752 0.549238 0.015110
v 0.156752 0.549238 -0.015110
v 0.221254 0.560669 0.015110
v 0.221254 0.560669 -0.015110
v 0.285756 0.560774 0.015110
v 0.285756 0.560774 -0.015110
v 0.350257 0.549278 0.015110
v 0.350257 0.549278 -0.015110
v 0.414759 0.541254 0.015110
v 0.414759 0.541254 -0.015110
v 0.479261 0.541254 0.015110
v 0.479261 0.541254 -0.015110
v 0.092251 0.611865 -0.015110
v 0.027749 0.622781 -0.015110
v 0.027749 0.622781 0.015110
v 0.092251 0.611865 0.015110
v 0.156752 0.613740 -0.015110
v 0.156752 0.613740 0.015110
v 0.221254 0.625171 -0.015110
v 0.221254 0.625171 0.015110
v 0.285756 0.625275 -0.015110
v 0.285756 0.625275 0.015110
v 0.350257 0.613780 -0.015110
v 0.350257 0.613780 0.015110
v 0.414759 0.605756 -0.015110
v 0.414759 0.605756 0.015110
v 0.479261 0.605756 -0.015110
v 0.479261 0.605756 0.015110
vt 0.142933 0.000000
vt 0.142954 0.249989
vt 0.000000 0.249926
vt 0.000000 0.000000
vt 0.142954 0.249989
vt 0.142933 0.000000
vt 0.000000 0.249926
vt 0.142954 0.249989
vt 0.000000 0.000000
vt 0.000000 0.249926
vt 0.142954 0.249989
vt 0.142933 0.000000
vt 0.284666 0.000000
vt 0.284753 0.250003
vt 0.284753 0.250003
vt 0.284753 0.250003
vt 0.284666 0.000000
vt 0.428209 0.000000
vt 0.428443 0.250003
vt 0.428443 0.250003
vt 0.428443 0.250003
vt 0.428209 0.000000
vt 0.569912 0.000000
vt 0.570145 0.250003
vt 0.570145 0.250003
vt 0.570145 0.250003
vt 0.569912 0.000000
vt 0.713953 0.000000
vt 0.713953 0.250003
vt 0.713953 0.250003
vt 0.713953 0.250003
vt 0.713953 0.000000
vt 0.856545 0.000000
vt 0.856545 0.250280
vt 0.856545 0.250280
vt 0.856545 0.250280
vt 0.856545 0.000000
vt 0.998079 0.000000
vt 0.998079 0.250478
vt 0.998079 0.250478
vt 0.998079 0.000000
vt 0.998079 0.250478
vt 0.856545 0.250280
vt 0.856545 0.000000
vt 0.143230 0.499913
vt 0.000000 0.499859
vt 0.143230 0.499913
vt 0.000000 0.499859
vt 0.143230 0.499913
vt 0.284882 0.499994
vt 0.284882 0.499994
vt 0.428793 0.499994
vt 0.428793 0.499994
vt 0.570496 0.499994
vt 0.570496 0.499994
vt 0.713953 0.499994
vt 0.713953 0.499994
vt 0.856545 0.500336
vt 0.856545 0.500336
vt 0.998079 0.500564
vt 0.998079 0.500564
vt 0.856545 0.500336
vt 0.143428 0.749666
vt 0.000000 0.749661
vt 0.143428 0.749666
vt 0.000000 0.749661
vt 0.143428 0.749666
vt 0.285136 0.749674
vt 0.285136 0.749674
vt 0.428825 0.749674
vt 0.428825 0.749674
vt 0.570528 0.749674
vt 0.570528 0.749674
vt 0.713953 0.749674
vt 0.713953 0.749674
vt 0.856545 0.750019
vt 0.856545 0.750019
vt 0.998079 0.750265
vt 0.998079 0.750265
vt 0.856545 0.750019
vt 0.143569 0.999738
vt 0.000000 0.999738
vt 0.000000 0.749661
vt 0.143428 0.749666
vt 0.143569 0.999738
vt 0.000000 0.999738
vt 0.143569 0.999738
vt 0.285304 0.999738
vt 0.285136 0.749674
vt 0.285304 0.999738
vt 0.428847 0.999738
vt 0.428825 0.749674
vt 0.428847 0.999738
vt 0.570550 0.999738
vt 0.570528 0.749674
vt 0.570550 0.999738
vt 0.713953 0.999738
vt 0.713953 0.749674
vt 0.713953 0.999738
vt 0.856545 0.999738
vt 0.856545 0.750019
vt 0.856545 0.999738
vt 0.998079 0.999738
vt 0.998079 0.750265
vt 0.998079 0.999738
vt 0.856545 0.999738
vn -0.0000 -0.0000 1.0000
vn -1.0000 0.0000 0.0000
vn -0.1669 -0.9860 0.0000
vn 0.0000 0.0000 -1.0000
vn 0.0291 -0.9996 0.0000
vn 0.1745 -0.9847 0.0000
vn 0.0016 -1.0000 0.0000
vn -0.1755 -0.9845 0.0000
vn -0.1234 -0.9924 0.0000
vn 0.0000 -1.0000 0.0000
vn 1.0000 -0.0000 0.0000
vn 0.1669 0.9860 0.0000
vn -0.0291 0.9996 0.0000
vn -0.1745 0.9847 0.0000
vn -0.0016 1.0000 0.0000
vn 0.1755 0.9845 0.0000
vn 0.1234 0.9924 0.0000
vn 0.0000 1.0000 0.0000
usemtl Texture
s off
f 17/35/17 18/36/17 19/37/17 20/38/17
f 20/38/18 19/37/18 21/39/18 22/40/18
f 22/41/19 23/42/19 17/35/19 20/38/19
f 22/43/20 21/44/20 24/45/20 23/46/20
f 25/47/17 26/48/17 18/36/17 17/35/17
f 23/42/21 27/49/21 25/47/21 17/35/21
f 23/46/20 24/45/20 28/50/20 27/51/20
f 29/52/17 30/53/17 26/48/17 25/47/17
f 27/49/22 31/54/22 29/52/22 25/47/22
f 27/51/20 28/50/20 32/55/20 31/56/20
f 33/57/17 34/58/17 30/53/17 29/52/17
f 31/54/23 35/59/23 33/57/23 29/52/23
f 31/56/20 32/55/20 36/60/20 35/61/20
f 37/62/17 38/63/17 34/58/17 33/57/17
f 35/59/24 39/64/24 37/62/24 33/57/24
f 35/61/20 36/60/20 40/65/20 39/66/20
f 41/67/17 42/68/17 38/63/17 37/62/17
f 39/64/25 43/69/25 41/67/25 37/62/25
f 39/66/20 40/65/20 44/70/20 43/71/20
f 45/72/17 46/73/17 42/68/17 41/67/17
f 43/69/26 47/74/26 45/72/26 41/67/26
f 47/75/27 48/76/27 46/77/27 45/78/27
f 43/71/20 44/70/20 48/76/20 47/75/20
f 18/36/17 49/79/17 50/80/17 19/37/17
f 19/37/18 50/80/18 51/81/18 21/39/18
f 21/44/20 51/82/20 52/83/20 24/45/20
f 26/48/17 53/84/17 49/79/17 18/36/17
f 24/45/20 52/83/20 54/85/20 28/50/20
f 30/53/17 55/86/17 53/84/17 26/48/17
f 28/50/20 54/85/20 56/87/20 32/55/20
f 34/58/17 57/88/17 55/86/17 30/53/17
f 32/55/20 56/87/20 58/89/20 36/60/20
f 38/63/17 59/90/17 57/88/17 34/58/17
f 36/60/20 58/89/20 60/91/20 40/65/20
f 42/68/17 61/92/17 59/90/17 38/63/17
f 40/65/20 60/91/20 62/93/20 44/70/20
f 46/73/17 63/94/17 61/92/17 42/68/17
f 48/76/27 64/95/27 63/96/27 46/77/27
f 44/70/20 62/93/20 64/95/20 48/76/20
f 49/79/17 65/97/17 66/98/17 50/80/17
f 50/80/18 66/98/18 67/99/18 51/81/18
f 51/82/20 67/100/20 68/101/20 52/83/20
f 53/84/17 69/102/17 65/97/17 49/79/17
f 52/83/20 68/101/20 70/103/20 54/85/20
f 55/86/17 71/104/17 69/102/17 53/84/17
f 54/85/20 70/103/20 72/105/20 56/87/20
f 57/88/17 73/106/17 71/104/17 55/86/17
f 56/87/20 72/105/20 74/107/20 58/89/20
f 59/90/17 75/108/17 73/106/17 57/88/17
f 58/89/20 74/107/20 76/109/20 60/91/20
f 61/92/17 77/110/17 75/108/17 59/90/17
f 60/91/20 76/109/20 78/111/20 62/93/20
f 63/94/17 79/112/17 77/110/17 61/92/17
f 64/95/27 80/113/27 79/114/27 63/96/27
f 62/93/20 78/111/20 80/113/20 64/95/20
f 81/115/28 82/116/28 83/117/28 84/118/28
f 65/97/17 84/119/17 83/120/17 66/98/17
f 66/98/18 83/120/18 82/121/18 67/99/18
f 67/100/20 82/116/20 81/115/20 68/101/20
f 85/122/29 81/115/29 84/118/29 86/123/29
f 69/102/17 86/124/17 84/119/17 65/97/17
f 68/101/20 81/115/20 85/122/20 70/103/20
f 87/125/30 85/122/30 86/123/30 88/126/30
f 71/104/17 88/127/17 86/124/17 69/102/17
f 70/103/20 85/122/20 87/125/20 72/105/20
f 89/128/31 87/125/31 88/126/31 90/129/31
f 73/106/17 90/130/17 88/127/17 71/104/17
f 72/105/20 87/125/20 89/128/20 74/107/20
f 91/131/32 89/128/32 90/129/32 92/132/32
f 75/108/17 92/133/17 90/130/17 73/106/17
f 74/107/20 89/128/20 91/131/20 76/109/20
f 93/134/33 91/131/33 92/132/33 94/135/33
f 77/110/17 94/136/17 92/133/17 75/108/17
f 76/109/20 91/131/20 93/134/20 78/111/20
f 95/137/34 93/134/34 94/135/34 96/138/34
f 79/112/17 96/139/17 94/136/17 77/110/17
f 80/113/27 95/137/27 96/140/27 79/114/27
f 78/111/20 93/134/20 95/137/20 80/113/20